<?xml version="1.0" encoding="UTF-8" standalone="no"?>
<!-- Created with Inkscape (http://www.inkscape.org/) -->

<svg
   xmlns:osb="http://www.openswatchbook.org/uri/2009/osb"
   xmlns:dc="http://purl.org/dc/elements/1.1/"
   xmlns:cc="http://creativecommons.org/ns#"
   xmlns:rdf="http://www.w3.org/1999/02/22-rdf-syntax-ns#"
   xmlns:svg="http://www.w3.org/2000/svg"
   xmlns="http://www.w3.org/2000/svg"
   xmlns:sodipodi="http://sodipodi.sourceforge.net/DTD/sodipodi-0.dtd"
   xmlns:inkscape="http://www.inkscape.org/namespaces/inkscape"
   width="200mm"
   height="200mm"
   viewBox="0 0 200 200"
   version="1.1"
   id="svg3735"
   sodipodi:docname="release.svg"
   inkscape:export-filename="C:\Users\RobotJu\Desktop\Images Vectorielles\grab.png"
   inkscape:export-xdpi="96"
   inkscape:export-ydpi="96"
   inkscape:version="0.92.2 (5c3e80d, 2017-08-06)">
  <defs
     id="defs3729">
    <linearGradient
       id="linearGradient6159"
       osb:paint="solid">
      <stop
         style="stop-color:#000000;stop-opacity:1;"
         offset="0"
         id="stop6157" />
    </linearGradient>
  </defs>
  <sodipodi:namedview
     id="base"
     pagecolor="#ffffff"
     bordercolor="#666666"
     borderopacity="1.0"
     inkscape:pageopacity="0.0"
     inkscape:pageshadow="2"
     inkscape:zoom="0.7"
     inkscape:cx="247.34175"
     inkscape:cy="369.62917"
     inkscape:document-units="mm"
     inkscape:current-layer="svg3735"
     showgrid="true"
     inkscape:measure-start="0,0"
     inkscape:measure-end="0,0"
     showguides="false"
     inkscape:window-width="1600"
     inkscape:window-height="837"
     inkscape:window-x="-8"
     inkscape:window-y="-8"
     inkscape:window-maximized="1">
    <inkscape:grid
       type="xygrid"
       id="grid3835" />
  </sodipodi:namedview>
  <metadata
     id="metadata3732">
    <rdf:RDF>
      <cc:Work
         rdf:about="">
        <dc:format>image/svg+xml</dc:format>
        <dc:type
           rdf:resource="http://purl.org/dc/dcmitype/StillImage" />
        <dc:title></dc:title>
      </cc:Work>
    </rdf:RDF>
  </metadata>
  <g
     inkscape:label="Calque 1"
     inkscape:groupmode="layer"
     id="layer1"
     transform="translate(0,-97)"
     style="display:inline" />
  <g
     inkscape:groupmode="layer"
     id="layer2"
     inkscape:label="Calque 2"
     style="display:inline">
    <rect
       style="opacity:1;fill:#f40000;fill-opacity:1;stroke:#000000;stroke-width:8.39999962;stroke-linecap:square;stroke-linejoin:miter;stroke-miterlimit:4;stroke-dasharray:none;stroke-opacity:1;paint-order:markers fill stroke"
       id="rect4690"
       width="201.08333"
       height="201.08333"
       x="-1.7763568e-015"
       y="-1.0833318"
       inkscape:export-xdpi="95.545555"
       inkscape:export-ydpi="95.545555" />
  </g>
  <g
     inkscape:groupmode="layer"
     id="layer3"
     inkscape:label="Calque 3"
     style="display:inline;opacity:0.98000004" />
  <g
     inkscape:groupmode="layer"
     id="layer6"
     inkscape:label="Calque 4"
     style="display:inline">
    <path
       style="fill:#ffffff;stroke:#000000;stroke-width:8;stroke-linecap:butt;stroke-linejoin:round;stroke-miterlimit:4;stroke-dasharray:none;stroke-opacity:1;fill-opacity:1"
       d="m 106.8522,168.13021 c 23.18512,-0.17105 47.625,-2.64583 47.625,-42.33333 V 64.942709 c -0.0279,-7.828121 -2.64583,-13.229166 -10.58333,-13.229166 -6.61458,0 -7.9375,1.322917 -10.58333,3.96875 l -1e-5,41.010416 1e-5,-46.302083 c 0,-5.291666 -3.96875,-9.260416 -10.58334,-9.260416 -6.61458,0 -8.8286,1.898494 -10.58333,5.291666 V 96.692709 41.13021 c 0,-7.9375 -6.61458,-9.260417 -10.58333,-9.260417 -9.260418,0 -10.583335,5.291667 -10.583335,11.90625 l -10e-7,52.916666 10e-7,-47.624999 c 0,-2.645834 -2.645833,-7.9375 -10.583334,-7.9375 -10.583332,0 -10.583332,5.291666 -10.583332,10.583333 l -1e-6,71.437497 V 96.692709 c 1e-6,-5.291666 -7.525557,-5.310601 -10.583333,-5.291667 -14.439212,0.353862 -14.359596,16.799598 -13.229166,31.749998 0.02058,13.1181 5.291666,23.8125 13.229166,34.39584 7.9375,7.9375 7.9375,10.58333 26.458333,10.58333 z"
       id="path6683"
       inkscape:connector-curvature="0"
       sodipodi:nodetypes="cccccccccccccccccccccccc" />
  </g>
</svg>
