<?xml version="1.0" encoding="UTF-8" standalone="no"?>
<!-- Created with Inkscape (http://www.inkscape.org/) -->

<svg
   xmlns:osb="http://www.openswatchbook.org/uri/2009/osb"
   xmlns:dc="http://purl.org/dc/elements/1.1/"
   xmlns:cc="http://creativecommons.org/ns#"
   xmlns:rdf="http://www.w3.org/1999/02/22-rdf-syntax-ns#"
   xmlns:svg="http://www.w3.org/2000/svg"
   xmlns="http://www.w3.org/2000/svg"
   xmlns:sodipodi="http://sodipodi.sourceforge.net/DTD/sodipodi-0.dtd"
   xmlns:inkscape="http://www.inkscape.org/namespaces/inkscape"
   width="200mm"
   height="200mm"
   viewBox="0 0 200 200"
   version="1.1"
   id="svg3735"
   sodipodi:docname="reset.svg"
   inkscape:export-filename="C:\Users\RobotJu\Documents\GitHub\BackUp\Images\reset.png"
   inkscape:export-xdpi="96"
   inkscape:export-ydpi="96"
   inkscape:version="0.92.2 (5c3e80d, 2017-08-06)">
  <defs
     id="defs3729">
    <linearGradient
       id="linearGradient6159"
       osb:paint="solid">
      <stop
         style="stop-color:#000000;stop-opacity:1;"
         offset="0"
         id="stop6157" />
    </linearGradient>
  </defs>
  <sodipodi:namedview
     id="base"
     pagecolor="#ffffff"
     bordercolor="#666666"
     borderopacity="1.0"
     inkscape:pageopacity="0.0"
     inkscape:pageshadow="2"
     inkscape:zoom="0.7"
     inkscape:cx="500.39664"
     inkscape:cy="455.69212"
     inkscape:document-units="mm"
     inkscape:current-layer="layer1"
     showgrid="false"
     inkscape:measure-start="0,0"
     inkscape:measure-end="0,0"
     showguides="false"
     inkscape:window-width="1600"
     inkscape:window-height="837"
     inkscape:window-x="-8"
     inkscape:window-y="-8"
     inkscape:window-maximized="1">
    <inkscape:grid
       type="xygrid"
       id="grid3835" />
  </sodipodi:namedview>
  <metadata
     id="metadata3732">
    <rdf:RDF>
      <cc:Work
         rdf:about="">
        <dc:format>image/svg+xml</dc:format>
        <dc:type
           rdf:resource="http://purl.org/dc/dcmitype/StillImage" />
        <dc:title></dc:title>
      </cc:Work>
    </rdf:RDF>
  </metadata>
  <g
     inkscape:label="Calque 1"
     inkscape:groupmode="layer"
     id="layer1"
     transform="translate(0,-97)"
     style="display:inline">
    <rect
       style="opacity:1;fill:#f40000;fill-opacity:1;stroke:#000000;stroke-width:8.01973057;stroke-linecap:square;stroke-linejoin:miter;stroke-miterlimit:4;stroke-dasharray:none;stroke-opacity:1;paint-order:markers fill stroke"
       id="rect4690"
       width="191.98027"
       height="191.98027"
       x="4.0098648"
       y="101.00986"
       inkscape:export-xdpi="95.545555"
       inkscape:export-ydpi="95.545555" />
  </g>
  <g
     inkscape:groupmode="layer"
     id="layer2"
     inkscape:label="Calque 2" />
  <g
     inkscape:groupmode="layer"
     id="layer3"
     inkscape:label="Calque 3"
     style="opacity:0.98">
    <g
       transform="matrix(0.32923591,0,0,0.32923591,15.715697,15.715607)"
       id="g914"
       style="fill:#060606;fill-opacity:1">
      <g
         id="g912"
         style="fill:#060606;fill-opacity:1" />
    </g>
  </g>
  <g
     inkscape:groupmode="layer"
     id="layer5"
     inkscape:label="Calque 4">
    <g
       id="g1713"
       transform="translate(-1.4587241e-4,1.9654e-4)">
      <path
         inkscape:connector-curvature="0"
         id="path1563"
         d="m 21.166666,72.999999 15.875,15.874999 V 104.75 l -15.875,15.875 15.875,26.45833 5.291667,5.29167 15.875,-10.58334 15.874999,10.58334 5.291667,21.16666 H 100.54167 V 168.25 c 0,0 -5.291671,-10.58334 -5.291671,-10.58334 v -10.58333 -5.29167 -10.58333 c 0,0 0,0 -5.291667,0 -5.291666,0 -10.583333,-5.29167 -10.583333,-5.29167 L 68.791666,120.625 c 0,0 -5.291667,-5.29167 -5.291667,-5.29167 0,0 0,-10.58333 0,-10.58333 v -5.291668 l -3.779761,-4.157737 3.779761,-11.717263 7.181548,-11.717261 9.071428,-6.425596 8.372297,-2.828158 10.904488,-1.707555 c 0,0 6.80357,2.645833 8.31548,3.779761 1.5119,1.133927 9.07143,4.913691 10.96131,6.425594 1.88988,1.511906 7.55952,7.559524 7.55952,7.559524 l 4.53571,6.803572 3.77004,8.549511 15.64891,-0.765474 12.70903,-11.5638 10.63083,-12.239627 -21.53532,-23.199609 -20.38892,0.26701 -10.38114,-6.026335 -9.61599,-17.524239 -31.2063,-0.231783 -9.917242,17.763266 -10.360067,6.033249 -20.052774,-0.484966 z"
         style="fill:#ffffff;fill-opacity:0.99576272;stroke:#000000;stroke-width:0.26458332px;stroke-linecap:butt;stroke-linejoin:miter;stroke-opacity:1" />
      <g
         transform="translate(-7.1247259,31.945649)"
         id="g1538"
         style="opacity:0.98000004">
        <g
           transform="matrix(0.32923592,0,0,0.32923592,22.840423,-16.230042)"
           id="g902"
           style="stroke:none;stroke-width:1;stroke-miterlimit:4;stroke-dasharray:none;stroke-opacity:1">
          <g
             id="g900"
             style="stroke:none;stroke-width:1;stroke-miterlimit:4;stroke-dasharray:none;stroke-opacity:1">
            <path
               inkscape:connector-curvature="0"
               d="M 478.213,163.221 431.408,82.282 C 426.245,72.767 414.512,68.458 403.76,72.319 L 350.875,93.567 C 340.806,86.335 330.246,80.191 319.344,75.263 L 311.301,19.2 C 309.957,8.256 300.443,0 289.221,0 h -93.867 c -11.221,0 -20.715,8.256 -22.059,19.008 l -8.064,56.277 C 154.65,80.106 144.282,86.144 133.764,93.61 L 80.731,72.299 C 70.342,68.267 58.523,72.534 53.275,82.07 l -46.87,81.087 c -5.632,9.557 -3.307,21.952 5.44,28.864 l 44.8,35.029 c -0.683,6.763 -1.024,12.672 -1.024,18.283 0,5.611 0.341,11.52 1.045,18.261 l -44.864,35.072 c -8.555,6.763 -10.901,18.752 -5.461,28.779 l 46.805,80.96 c 5.205,9.493 16.896,13.845 27.669,9.941 L 133.7,397.098 c 10.069,7.232 20.629,13.376 31.531,18.304 l 8.043,56.085 c 1.365,10.923 10.88,19.179 22.08,19.179 h 73.515 c 3.989,0 7.637,-2.219 9.429,-5.675 1.835,-3.52 1.557,-7.765 -0.704,-11.029 -16.341,-23.381 -24.96,-50.795 -24.96,-79.232 0,-13.269 1.941,-26.56 5.781,-39.509 0.981,-3.328 0.299,-6.933 -1.856,-9.643 -2.155,-2.709 -5.461,-4.16 -8.939,-4.053 -1.152,0.064 -2.283,0.213 -5.184,0.576 -53.056,0 -96.213,-43.157 -96.213,-96.213 0,-53.077 43.157,-96.235 96.213,-96.235 53.056,0 96.213,43.157 96.021,97.984 -0.149,1.131 -0.299,2.261 -0.363,3.413 -0.171,3.456 1.344,6.784 4.053,8.939 2.731,2.155 6.336,2.795 9.643,1.856 20.757,-6.187 41.216,-7.68 64.384,-3.456 2.837,0.512 5.952,-0.768 8.341,-2.539 2.389,-1.771 3.947,-5.056 4.267,-8 0.043,-0.384 0.149,-2.112 0.149,-2.496 0,-6.635 -0.469,-12.907 -1.024,-18.283 L 472.752,192 c 8.555,-6.741 10.923,-18.731 5.461,-28.779 z m -68.096,50.71 c -2.944,2.304 -4.48,6.016 -4.011,9.728 0.448,3.584 0.917,7.595 1.216,11.861 -16.299,-1.728 -31.915,-0.832 -47.531,2.325 -4.117,-61.12 -55.147,-109.589 -117.291,-109.589 -64.811,0 -117.547,52.736 -117.547,117.568 0,62.165 48.469,113.195 109.589,117.291 -2.112,10.432 -3.179,20.992 -3.179,31.552 0,26.176 6.336,51.605 18.432,74.496 l -55.36,-0.512 -8.917,-62.187 c -0.555,-3.755 -3.029,-6.933 -6.528,-8.363 -12.992,-5.312 -25.493,-12.587 -37.205,-21.589 -1.899,-1.472 -4.203,-2.219 -6.507,-2.219 -1.344,0 -2.688,0.256 -3.968,0.768 L 71.769,397.93 24.985,315.455 74.5,276.735 c 2.944,-2.304 4.48,-6.016 4.011,-9.728 -1.067,-8.491 -1.557,-15.381 -1.557,-21.675 0,-6.294 0.491,-13.184 1.557,-21.675 0.469,-3.712 -1.067,-7.424 -4.011,-9.728 l -49.664,-40 48.021,-81.792 58.432,23.467 c 3.477,1.387 7.424,0.875 10.389,-1.365 12.587,-9.451 24.789,-16.533 37.291,-21.653 3.499,-1.451 5.995,-4.608 6.528,-8.363 l 9.856,-62.891 94.784,0.704 8.917,62.187 c 0.555,3.755 3.029,6.933 6.528,8.363 12.971,5.312 25.493,12.565 37.205,21.589 2.965,2.304 6.955,2.837 10.475,1.429 l 59.541,-22.848 46.827,82.453 z"
               id="path898"
               style="stroke:none;stroke-width:1;stroke-miterlimit:4;stroke-dasharray:none;stroke-opacity:1" />
          </g>
        </g>
      </g>
      <g
         style="opacity:0.98000004;fill:#ffffff;fill-opacity:1;stroke:#000000;stroke-width:9.11200714;stroke-miterlimit:4;stroke-dasharray:none;stroke-opacity:1"
         id="g908"
         transform="matrix(0.32923591,0,0,0.32923591,15.715982,15.715214)">
        <g
           style="fill:#ffffff;fill-opacity:1;stroke:#000000;stroke-width:9.11200714;stroke-miterlimit:4;stroke-dasharray:none;stroke-opacity:1"
           id="g906">
          <path
             style="fill:#000000;fill-opacity:1;stroke:none;stroke-width:9.11200714;stroke-miterlimit:4;stroke-dasharray:none;stroke-opacity:1"
             id="path904"
             d="m 497.669,360.085 c -8,-32 -43.925,-82.752 -106.347,-82.752 -64.704,0 -117.333,52.629 -117.333,117.333 0,64.704 52.63,117.334 117.334,117.334 5.909,0 10.667,-4.779 10.667,-10.667 0,-5.888 -4.779,-10.667 -10.667,-10.667 -52.928,0 -96,-43.072 -96,-96 0,-52.928 43.072,-96 96,-96 52.16,0 80.235,44.864 85.653,66.581 1.408,5.717 7.232,9.195 12.928,7.765 5.717,-1.428 9.195,-7.209 7.765,-12.927 z"
             inkscape:connector-curvature="0" />
        </g>
      </g>
      <path
         style="opacity:0.98000004;fill:#000000;fill-opacity:1;stroke:none;stroke-width:3;stroke-miterlimit:4;stroke-dasharray:none;stroke-opacity:1"
         id="path910"
         d="m 179.67185,114.04711 c -1.93854,0 -3.51196,1.57342 -3.51196,3.51196 v 17.55914 h -17.55914 c -1.93854,0 -3.51196,1.57342 -3.51196,3.51196 0,1.93854 1.57342,3.51196 3.51196,3.51196 h 21.0711 c 1.94545,0 3.51196,-1.57342 3.51196,-3.51196 v -21.0711 c 0,-1.93887 -1.57342,-3.51196 -3.51196,-3.51196 z"
         inkscape:connector-curvature="0" />
    </g>
  </g>
</svg>
