<?xml version="1.0" encoding="UTF-8" standalone="no"?>
<!-- Created with Inkscape (http://www.inkscape.org/) -->

<svg
   xmlns:dc="http://purl.org/dc/elements/1.1/"
   xmlns:cc="http://creativecommons.org/ns#"
   xmlns:rdf="http://www.w3.org/1999/02/22-rdf-syntax-ns#"
   xmlns:svg="http://www.w3.org/2000/svg"
   xmlns="http://www.w3.org/2000/svg"
   xmlns:sodipodi="http://sodipodi.sourceforge.net/DTD/sodipodi-0.dtd"
   xmlns:inkscape="http://www.inkscape.org/namespaces/inkscape"
   width="200mm"
   height="200mm"
   viewBox="0 0 200 200"
   version="1.1"
   id="svg8"
   inkscape:version="0.92.2 (5c3e80d, 2017-08-06)"
   sodipodi:docname="start+del.svg"
   inkscape:export-filename="C:\Users\Sylvain\Documents\robot-ju\jeu-coupe-2018\interface-python\start+del.png"
   inkscape:export-xdpi="96"
   inkscape:export-ydpi="96">
  <defs
     id="defs2" />
  <sodipodi:namedview
     id="base"
     pagecolor="#ffffff"
     bordercolor="#666666"
     borderopacity="1.0"
     inkscape:pageopacity="0.0"
     inkscape:pageshadow="2"
     inkscape:zoom="0.7"
     inkscape:cx="0.71548429"
     inkscape:cy="339.14243"
     inkscape:document-units="mm"
     inkscape:current-layer="layer1"
     showgrid="true"
     inkscape:window-width="1920"
     inkscape:window-height="1017"
     inkscape:window-x="-8"
     inkscape:window-y="-8"
     inkscape:window-maximized="1">
    <inkscape:grid
       type="xygrid"
       id="grid823" />
  </sodipodi:namedview>
  <metadata
     id="metadata5">
    <rdf:RDF>
      <cc:Work
         rdf:about="">
        <dc:format>image/svg+xml</dc:format>
        <dc:type
           rdf:resource="http://purl.org/dc/dcmitype/StillImage" />
        <dc:title />
      </cc:Work>
    </rdf:RDF>
  </metadata>
  <g
     inkscape:label="Calque 1"
     inkscape:groupmode="layer"
     id="layer1"
     transform="translate(0,-97)"
     style="display:inline">
    <circle
       style="opacity:1;fill:#f40000;fill-opacity:1;fill-rule:nonzero;stroke:#000000;stroke-width:7.45167208;stroke-linecap:round;stroke-linejoin:miter;stroke-miterlimit:4;stroke-dasharray:none;stroke-dashoffset:0;stroke-opacity:1;paint-order:markers fill stroke"
       id="path819"
       cx="93.571083"
       cy="190.57108"
       r="87.367805" />
    <rect
       transform="translate(0,97)"
       id="rect120"
       width="42.333332"
       height="42.333332"
       x="137.58333"
       y="136.5"
       style="stroke-width:0.26458332" />
  </g>
  <g
     inkscape:groupmode="layer"
     id="layer3"
     inkscape:label="Calque 1.5" />
  <g
     inkscape:groupmode="layer"
     id="layer2"
     inkscape:label="Calque 2"
     style="display:inline">
    <path
       style="fill:none;fill-opacity:1;stroke:#000000;stroke-width:7.45167208;stroke-linecap:butt;stroke-linejoin:round;stroke-miterlimit:4;stroke-dasharray:none;stroke-opacity:0.49019608"
       d="M 61.76548,153.1335 V 42.231653 l 96.11499,55.491983 z"
       id="path825-9"
       inkscape:connector-curvature="0"
       inkscape:export-filename="C:\Users\RobotJu\Desktop\Images\start2.png"
       inkscape:export-xdpi="96"
       inkscape:export-ydpi="96" />
  </g>
  <g
     inkscape:groupmode="layer"
     id="layer4"
     inkscape:label="Calque 3">
    <path
       style="fill:#fcfcfc;fill-opacity:1;stroke:#000000;stroke-width:7.45167208;stroke-linecap:butt;stroke-linejoin:round;stroke-miterlimit:4;stroke-dasharray:none;stroke-opacity:1"
       d="M 57.34334,149.022 V 38.120161 l 96.11499,55.491978 z"
       id="path825"
       inkscape:connector-curvature="0"
       inkscape:export-filename="C:\Users\RobotJu\Desktop\Images\start2.png"
       inkscape:export-xdpi="96"
       inkscape:export-ydpi="96" />
    <g
       transform="matrix(1.5371906,0,0,1.5371906,119.74598,117.71816)"
       id="g4"
       style="display:inline;opacity:1;fill:#ffffff;fill-opacity:1;stroke:#000000;stroke-width:2.60214972;stroke-miterlimit:4;stroke-dasharray:none;stroke-opacity:1">
      <path
         inkscape:connector-curvature="0"
         d="m 44.373,7.603 c -10.137,-10.137 -26.632,-10.138 -36.77,0 -10.138,10.138 -10.137,26.632 0,36.77 10.137,10.138 26.632,10.138 36.77,0 10.137,-10.138 10.137,-26.633 0,-36.77 z m -8.132,28.638 c -0.781,0.781 -2.047,0.781 -2.828,0 l -7.425,-7.425 -7.778,7.778 c -0.781,0.781 -2.047,0.781 -2.828,0 -0.781,-0.781 -0.781,-2.047 0,-2.828 l 7.778,-7.778 -7.425,-7.425 c -0.781,-0.781 -0.781,-2.048 0,-2.828 0.781,-0.781 2.047,-0.781 2.828,0 l 7.425,7.425 7.071,-7.071 c 0.781,-0.781 2.047,-0.781 2.828,0 0.781,0.781 0.781,2.047 0,2.828 l -7.071,7.071 7.425,7.425 c 0.781,0.781 0.781,2.047 0,2.828 z"
         id="path2-4"
         style="fill:#ffffff;fill-opacity:1;stroke:#000000;stroke-width:2.60214972;stroke-miterlimit:4;stroke-dasharray:none;stroke-opacity:1" />
    </g>
  </g>
</svg>
