<?xml version="1.0" encoding="UTF-8" standalone="no"?>
<svg id="svg2" xmlns:rdf="http://www.w3.org/1999/02/22-rdf-syntax-ns#" xmlns="http://www.w3.org/2000/svg" height="167.21" width="746.64" version="1.1" xmlns:cc="http://creativecommons.org/ns#" xmlns:dc="http://purl.org/dc/elements/1.1/" viewBox="0 0 746.64459 167.20999">
 <path id="path4" fill="#fff" d="m430.36 2c-13.14 0-22.38 3.2698-27.72 9.84-5.33 6.57-8 17.951-8 34.131 0 16.17 2.67 27.549 8 34.119 5.34 6.57 14.58 9.84 27.72 9.84 10.76 0 19.83-1.13 27.22-3.43l-1.59-13.939c-5.67 0.74-14.21 1.119-25.63 1.119-6.16 0-10.38-1.951-12.68-5.811-2.22-3.94-3.32-11.228-3.32-21.898 0-10.68 1.1-17.961 3.32-21.821 2.3-3.94 6.52-5.9 12.68-5.9 9.28 0 17.26 0.209 23.91 0.619l1.59-14.058c-7.47-1.8905-15.97-2.811-25.5-2.811zm-384.02 0.3984v33.594h-44.344v128.82h350v-128.82l-44.34 0.002v-33.594l-99.25 0.0004v33.594h-62.82v-33.594l-99.246 0.0004zm450.89 23.602c-11.41 0-19.48 2.429-24.25 7.279-4.67 4.84-7.02 13.131-7.02 24.871 0 11.66 2.35 19.91 7.02 24.75 4.77 4.77 12.84 7.161 24.25 7.161 11.34 0 19.35-2.391 24.03-7.161 4.77-4.84 7.16-13.09 7.16-24.75s-2.39-19.9-7.16-24.75c-4.68-4.92-12.69-7.4-24.03-7.4zm218.6 0c-11.17 0-19.15 2.39-23.91 7.15-4.68 4.77-7.03 13.09-7.03 25 0 11.34 2.44 19.481 7.28 24.411 4.85 4.93 12.96 7.369 24.38 7.369 11.33 0 20.17-1.521 26.5-4.561l-1.72-11.308c-8.63 0.9-16.2 1.339-22.69 1.339-4.85 0-8.33-0.74-10.47-2.22-2.05-1.56-3.36-4.56-3.94-9h21.94c6.49 0 11.17-1.39 14.04-4.18 2.96-2.88 4.43-7.15 4.43-12.82-0.08-7.14-2.39-12.419-6.91-15.869-4.51-3.53-11.8-5.311-21.9-5.311zm-61.91 0.119c-4.6 0-9.17 1.001-13.69 2.971-4.43 1.97-7.92 4.46-10.47 7.5l-1.34-8.879h-14.78v84.159h18.09v-14.659c0.17-4.51 0.05-8.871-0.36-13.061 5.34 3.94 12.13 5.911 20.34 5.911 7.97 0 13.77-2.311 17.46-6.911 3.78-4.68 5.7-12.84 5.7-24.5 0-21.68-6.99-32.531-20.95-32.531zm-113.3 1.592v45.469c0 11.25 5.7 16.881 17.11 16.881 8.38 0 16.76-3.321 25.14-9.971l1.34 8.381h14.41v-60.76h-18.09v42.039c-6.57 3.36-11.63 5.029-15.16 5.029-2.46 0-4.21-0.529-5.2-1.599-0.98-1.06-1.42-2.9-1.34-5.53v-39.939h-18.21zm175.8 11.6c3.94 0 6.68 0.568 8.16 1.718 1.48 1.07 2.22 3.031 2.22 5.901 0 2.06-0.43 3.619-1.25 4.689-0.74 1.07-2.21 1.592-4.43 1.592h-17.25c0.25-5.58 1.23-9.251 2.96-11.061 1.72-1.89 4.91-2.839 9.59-2.839zm-219.19 0.369c4.77 0 8 1.27 9.64 3.82 1.64 2.46 2.46 7.34 2.46 14.65 0 7.23-0.87 12.07-2.6 14.53-1.64 2.47-4.82 3.689-9.5 3.689-4.84 0-8.06-1.219-9.7-3.689-1.65-2.46-2.48-7.3-2.48-14.53 0-7.39 0.83-12.321 2.48-14.781 1.64-2.46 4.86-3.689 9.7-3.689zm149.41 0.72c3.53 0 5.99 1.3 7.39 3.85 1.39 2.46 2.09 7.26 2.09 14.4 0 7.31-0.76 12.111-2.32 14.411-1.48 2.3-4.25 3.439-8.27 3.439-2.8 0-7.39-0.799-13.8-2.439v-27.85c5.92-3.85 10.89-5.811 14.91-5.811zm-600.52 36.373l99.435 12.155-4.44 36.592-99.464-12.12 4.469-36.627zm261.76 0l4.47 36.627-99.47 12.12-4.43-36.592 99.43-12.155zm91.76 30.627v56.03h6.91v-24.18h17.94c1.1 0 2.12 0.12 3.03 0.37 3.97 0.84 5.97 4.07 5.97 9.69l-0.1 4.97c0 3.64 0.54 6.69 1.6 9.15h8.4v-1.78c-0.76-0.54-1.39-1.15-1.87-1.84-0.86-1.38-1.34-4.54-1.44-9.47-0.05-4.39-0.47-7.55-1.28-9.47-0.96-2.02-3.01-3.71-6.12-5.09 1.19-0.64 2.29-1.27 3.25-1.91 3.59-2.61 5.37-6.44 5.37-11.47 0-2.17-0.25-4.1-0.78-5.78-2.06-6.16-7.34-9.22-15.81-9.22h-25.07zm92.44 0v56.03h5.59v-5.18c2.97 4.63 7.13 6.96 12.45 6.96 3.97 0 7.35-1.26 10.18-3.78 4.54-3.94 6.84-10.06 6.84-18.34 0-5.08-0.95-9.33-2.81-12.78-2.92-5.57-7.57-8.34-13.94-8.34-5.22 0-9.25 2.22-12.13 6.65v-21.22h-6.18zm186.88 0v39.41c0 4.24-0.58 7.21-1.73 8.94-1.53 2.31-3.72 3.46-6.59 3.46-0.81 0.01-1.58-0.07-2.25-0.21-3.97-0.99-5.93-4.29-5.93-9.91v-3.62h-7.07v4.87c0 3.15 0.69 5.9 2.03 8.22 2.59 4.43 6.95 6.65 13.13 6.65 3.3 0 6.18-0.72 8.62-2.15 4.5-2.71 6.75-7.24 6.75-13.59v-42.07h-6.96zm18.8 0v39.31c0 4.19 1.05 7.77 3.11 10.72 3.64 5.18 9.57 7.78 17.8 7.78 5.22 0 9.63-1.15 13.22-3.46 5.17-3.31 7.75-8.33 7.75-15.04v-39.31h-6.97v39.31c0 2.27-0.48 4.28-1.44 6-2.2 4.15-6.38 6.22-12.56 6.22-4.02 0-7.32-0.99-9.96-2.96-2.63-2.17-3.98-5.26-3.98-9.26v-39.31h-6.97zm-120.37 4.66v11.09h-5.22v5.25h5.22v30.44c0 0.44 0.05 0.84 0.09 1.19 0.58 3.45 3.08 5.18 7.48 5.18 1.49 0 3.17-0.18 5.09-0.53v-5.37c-0.72 0.2-1.69 0.28-2.93 0.28-0.77 0-1.39-0.07-1.82-0.22-1.1-0.29-1.66-1.43-1.66-3.4v-27.57h6.41v-5.25h-6.41v-11.09h-6.25zm-170.84 1.62h16.82c3.64 0 6.24 0.7 7.87 2.13 1.87 1.67 2.81 4.21 2.81 7.56 0 1.13-0.09 2.15-0.28 3.03-0.91 4.39-4.37 6.57-10.4 6.57h-16.82v-19.29zm60.32 8.29c-3.79 0-7.02 0.95-9.75 2.87-5.27 3.6-7.91 9.86-7.91 18.78 0 4.83 0.83 8.96 2.5 12.41 2.97 6.11 8.07 9.18 15.25 9.18 3.93 0 7.26-1.01 10.03-3.03 5.08-3.59 7.63-9.7 7.63-18.28 0-4.68-0.72-8.66-2.16-11.97-2.82-6.65-8.03-9.96-15.59-9.96zm83.03 0c-3.78 0-7.02 0.95-9.75 2.87-5.27 3.6-7.91 9.86-7.91 18.78 0 4.83 0.83 8.96 2.5 12.41 2.97 6.11 8.04 9.18 15.22 9.18 3.93 0 7.29-1.01 10.07-3.03 5.07-3.59 7.62-9.7 7.62-18.28 0-4.68-0.72-8.66-2.16-11.97-2.82-6.65-8.02-9.96-15.59-9.96zm60.56 0c-3.4 0-6.34 0.62-8.78 1.9-4.16 2.17-6.25 5.66-6.25 10.44 0 2.22 0.41 4.04 1.22 5.47 1.53 2.61 5.28 4.64 11.22 6.12l5.81 1.5c0.72 0.2 1.38 0.4 2 0.6 2.68 0.98 4.03 2.63 4.03 5 0 0.93-0.25 1.85-0.78 2.68-1.39 2.42-4.18 3.63-8.34 3.63-3.55 0-6.12-0.93-7.75-2.75-0.91-0.99-1.53-2.68-1.81-5.09h-6.6c0 0.44 0.02 0.85 0.06 1.24 0.72 8.33 5.93 12.5 15.6 12.5 3.73 0 6.93-0.68 9.56-2.06 4.36-2.26 6.53-5.84 6.53-10.72 0-1.38-0.16-2.63-0.5-3.72-1.15-3.54-4.67-6.05-10.56-7.53l-5.97-1.4c-0.81-0.2-1.56-0.41-2.28-0.66-3.31-1.13-4.97-2.86-4.97-5.12 0-0.84 0.16-1.61 0.5-2.35 1.15-2.46 3.77-3.72 7.84-3.72 5.08 0 7.67 2.15 7.82 6.44h6.62c0-1.67-0.28-3.23-0.81-4.66-1.73-5.17-6.18-7.74-13.41-7.74zm-143.5 5.96c1.87 0 3.56 0.4 5.09 1.19 4.08 2.37 6.1 7.28 6.1 14.72 0 3.35-0.51 6.24-1.56 8.66-1.92 4.53-5.13 6.81-9.63 6.81-2.06 0-3.88-0.52-5.41-1.5-3.88-2.47-5.81-7.19-5.81-14.19 0-3.3 0.48-6.19 1.44-8.65 1.87-4.69 5.13-7.04 9.78-7.04zm83 0c1.87 0 3.6 0.4 5.13 1.19 4.07 2.37 6.09 7.28 6.09 14.72 0 3.35-0.54 6.24-1.59 8.66-1.92 4.53-5.13 6.81-9.63 6.81-2.06 0-3.84-0.52-5.37-1.5-3.88-2.47-5.82-7.19-5.82-14.19 0-3.3 0.48-6.19 1.44-8.65 1.87-4.69 5.11-7.04 9.75-7.04zm-40.78 0.1c2.3 0 4.32 0.67 6.09 2 3.55 2.71 5.32 7.3 5.32 13.81 0 3.6-0.66 6.7-2 9.31-2.06 4.04-5.2 6.06-9.41 6.06-2.15 0.01-4.07-0.66-5.75-2-3.45-2.66-5.16-7.18-5.16-13.59 0-3.55 0.59-6.59 1.79-9.15 1.96-4.29 5-6.44 9.12-6.44zm123.53 11.44v5.5h17.75v-5.5h-17.75z"/>
</svg>
